<svg width="69" height="56" viewBox="0 0 69 56" fill="none" xmlns="http://www.w3.org/2000/svg">
<g clip-path="url(#clip0_133_655)">
<path d="M51.2287 0L45.4326 5.79615C45.1407 5.75542 44.8489 5.72828 44.557 5.70791C42.4802 4.86632 38.788 4.27585 34.4579 7.60829L34.3561 7.69652L32.9308 9.1218C27.5758 5.49073 23.3271 7.73046 22.1326 8.51776L16.798 3.18313L0 19.9947L6.37305 26.3677C6.42056 29.2251 7.43861 32.1503 9.40686 35.1094C10.2213 36.3311 11.1715 37.451 12.1963 38.4962C13.5062 39.8264 14.8433 41.1431 16.16 42.4666C14.7279 44.557 15.3387 46.2877 16.8387 47.842C18.3861 49.4573 19.8182 49.6473 21.9222 49.0365C21.9426 49.0365 21.9629 49.0365 21.9697 49.0568C23.4764 51.3169 24.8678 52.4096 26.3677 52.5318C26.9921 53.1359 27.6097 53.7467 28.2341 54.3507C30.087 56.1425 32.9172 56.543 35.1569 55.2602C36.1207 54.7105 36.2904 54.2489 36.7791 53.4616C40.5662 56.638 43.0842 56.6923 46.057 52.24C46.0705 52.2264 46.0909 52.2128 46.1045 52.2196C48.2085 52.8304 49.6337 52.6404 51.188 51.0251C52.7694 49.3826 53.3666 47.5433 51.602 45.29C51.5884 45.2765 51.1337 44.6792 51.154 44.6792C52.4096 44.7199 53.4073 43.919 53.9571 43.2064C55.4231 41.3128 55.3281 39.3242 53.7603 37.3695C54.4458 36.6773 55.138 35.9985 55.8235 35.3063C56.8552 34.2611 57.7986 33.1412 58.613 31.9263C60.588 28.9672 61.5993 26.0419 61.6536 23.1846L68.0267 16.8115L51.2287 0ZM13.2212 36.0528C11.2869 34.0099 9.84123 31.7566 9.20325 29.1979C9.06072 28.6278 8.95891 28.0441 8.90462 27.4401C8.85711 26.9514 8.84353 26.4492 8.85711 25.9333L2.39583 19.4721L16.2889 5.58575L20.7412 10.0381L21.0331 10.3299L21.0127 10.3774L23.1642 10.5539L23.3067 10.2077C24.1551 9.63083 27.6776 7.67616 32.381 11.2597L38.6048 17.5106C38.917 17.8228 39.0867 18.2436 39.0867 18.6916C39.0867 19.1395 38.9102 19.5603 38.598 19.8725L38.1908 20.2797C37.5392 20.9313 36.4804 20.9245 35.8357 20.2797L29.4694 13.8863L27.9219 14.9655L29.6459 16.9812L30.3924 17.7278C29.6594 18.4608 28.9332 19.187 28.2002 19.92C28.017 20.1033 27.9152 20.3001 27.8609 20.4969C27.8269 20.5376 27.7862 20.5716 27.7523 20.6123C23.4764 24.8949 19.187 29.164 14.9179 33.4602C14.0628 34.3221 13.4995 35.1841 13.228 36.0528H13.2212ZM33.847 53.387C33.3584 53.8553 32.8493 54.1404 32.1096 54.0861C31.0915 54.0046 30.3856 53.2309 29.897 52.749C29.5983 52.4504 29.2997 52.1517 28.9943 51.8531C29.7002 51.473 30.4467 50.9504 31.2476 50.2785C31.7431 51.0658 31.9059 51.5205 32.8697 52.0771C33.3041 52.3282 33.7588 52.5115 34.2271 52.6336C34.1457 52.9458 34.0167 53.2241 33.8403 53.4006L33.847 53.387ZM43.0164 52.525C42.0662 53.6449 40.9735 53.7467 39.5753 52.4504C39.3581 52.2468 39.1477 52.0431 38.9306 51.8395C39.236 51.6359 39.5278 51.412 39.7993 51.154C40.6002 50.3803 41.3875 49.5998 42.1816 48.8261C42.263 48.9075 42.3512 48.9958 42.4327 49.0772C43.7426 50.3939 43.919 51.4527 43.0164 52.5182V52.525ZM49.6677 49.0501C48.7039 50.3667 47.2311 50.3939 45.9076 49.0772C45.2493 48.4256 44.5977 47.7673 43.9394 47.1157C45.0185 46.057 46.1045 45.0118 47.1836 43.9462C47.7944 44.557 48.4053 45.1611 49.0093 45.7719C50.1835 46.9529 50.3803 48.0659 49.6609 49.0501H49.6677ZM52.3553 41.2585C51.8667 42.487 50.4075 43.0639 49.2537 42.4259C49.1383 42.3648 49.0297 42.2901 48.9279 42.2155C49.9731 41.1839 50.9979 40.1386 52.0364 39.107C52.4843 39.7043 52.7151 40.3626 52.3553 41.2585ZM59.1763 22.7502C59.1899 23.2592 59.1763 23.7615 59.1288 24.2569C59.0745 24.8542 58.9727 25.4447 58.8302 26.0148C58.1922 28.5803 56.733 30.8472 54.7851 32.8969C52.145 35.6728 49.3826 38.3333 46.6678 41.0413C43.824 43.8851 40.9938 46.7425 38.1297 49.5591C37.641 50.041 36.9352 50.8215 35.9171 50.8961C35.1773 50.9572 34.6751 50.6654 34.1864 50.1971C33.7452 49.7763 33.6027 48.7243 33.7724 48.0659C33.9556 47.3533 34.5936 46.7017 35.1434 46.1384C36.4397 44.8081 37.7632 43.5118 39.0663 42.1951C39.7043 41.5571 40.3423 40.9124 40.9667 40.2608C41.6386 39.5685 43.5933 38.1161 42.4938 37.0845C41.4893 36.1411 40.0436 37.96 39.4396 38.5641C38.8016 39.2088 38.1636 39.8468 37.5121 40.478C34.5054 43.4168 31.5327 46.3963 28.4513 49.2537C27.06 50.55 25.9673 50.4482 25.0103 49.3283C24.1076 48.2628 24.2773 47.204 25.594 45.8873C29.0011 42.4734 32.415 39.0595 35.8289 35.6456C36.304 35.1637 36.718 34.8515 36.8062 34.1253C36.8673 33.5824 36.6705 33.1073 36.1139 33.0258C35.1773 32.8833 34.7701 33.243 34.166 33.847C30.1481 37.8582 26.1437 41.8829 22.119 45.8873C20.8023 47.204 19.3227 47.1768 18.359 45.8534C17.6396 44.8692 17.8364 43.7562 19.0105 42.5752C23.0828 38.4894 27.1618 34.4036 31.2544 30.3314C31.9195 29.6662 32.4421 28.9264 31.6277 28.1595C30.8472 27.4265 30.1753 28.0781 29.578 28.6753C26.4424 31.8245 23.2932 34.9737 20.144 38.1093C19.7232 38.5233 19.282 38.9509 18.773 39.236C17.6192 39.874 16.16 39.2903 15.6713 38.0686C15.1691 36.813 15.8138 36.0189 16.6147 35.218C21.834 30.0191 27.0532 24.8135 32.2249 19.5739L34.3629 21.7186C35.0891 22.4516 36.0461 22.8181 37.003 22.8181C37.9532 22.8181 38.9102 22.4584 39.6364 21.7322L40.0504 21.3249C40.7563 20.6259 41.1431 19.6893 41.1431 18.6916C41.1431 17.7549 40.797 16.8794 40.1726 16.1871L35.4352 11.4023L34.5054 10.4656L35.7678 9.19646C37.7292 7.70331 39.4735 7.18071 40.9192 7.10605C43.5593 6.8685 45.8941 8.24627 45.8941 8.24627L47.299 6.84814L51.7513 2.39583L65.6444 16.2889L59.1831 22.7502H59.1763Z" fill="#F27121"/>
</g>
<defs>
<clipPath id="clip0_133_655">
<rect width="68.0402" height="56" fill="white"/>
</clipPath>
</defs>
</svg>
