<svg width="24" height="25" viewBox="0 0 24 25" fill="none" xmlns="http://www.w3.org/2000/svg">
<path d="M17 2.80859H7C4.23858 2.80859 2 5.04717 2 7.80859V17.8086C2 20.57 4.23858 22.8086 7 22.8086H17C19.7614 22.8086 22 20.57 22 17.8086V7.80859C22 5.04717 19.7614 2.80859 17 2.80859Z" stroke="#F27121" stroke-width="2" stroke-linecap="round" stroke-linejoin="round"/>
<path d="M16 12.1784C16.1234 13.0107 15.9812 13.8606 15.5937 14.6074C15.2062 15.3542 14.5931 15.9598 13.8416 16.3381C13.0901 16.7163 12.2384 16.848 11.4077 16.7143C10.5771 16.5807 9.80971 16.1885 9.21479 15.5936C8.61987 14.9986 8.22768 14.2313 8.09402 13.4006C7.96035 12.57 8.09202 11.7183 8.47028 10.9668C8.84854 10.2153 9.45414 9.60215 10.2009 9.21465C10.9477 8.82715 11.7977 8.685 12.63 8.80841C13.4789 8.93429 14.2648 9.32987 14.8716 9.93671C15.4785 10.5436 15.8741 11.3295 16 12.1784Z" stroke="#F27121" stroke-width="2" stroke-linecap="round" stroke-linejoin="round"/>
<path d="M17.5 7.30859H17.51" stroke="#F27121" stroke-width="2" stroke-linecap="round" stroke-linejoin="round"/>
</svg>
