<svg width="125" height="40" viewBox="0 0 125 40" fill="none" xmlns="http://www.w3.org/2000/svg">
<path d="M39.1055 10.717L31.1787 18.6415L21.8364 9.49057L20.3114 7.99623L12.1469 0H18.9563L23.6822 4.62642L25.2072 6.12076L32.262 13.0302L33.5794 11.7132L26.5245 4.80377L24.9996 3.30943L21.6213 0H28.1627L36.8181 8.47547L39.1055 10.717Z" fill="#E21F26"/>
<path d="M34.625 24.6302L28.5893 30.6642L29.9218 31.9736L40.3889 21.5094V28.3019L33.3567 35.3321L29.7859 38.9019L21.5873 30.8717L40.3889 12.0755V18.8679L35.9461 23.3094L34.625 24.6302Z" fill="#E21F26"/>
<path d="M18.9866 9.32076L0 28.3019V12.0755L10.788 1.29057L18.9866 9.32076Z" fill="#F27121"/>
<path d="M28.6195 40H11.8638L1.48343 29.8377L9.77636 21.5472L28.6195 40Z" fill="#F27121"/>
<path d="M46.3676 16H44.7369L48.401 5.81818H50.1758L53.8399 16H52.2092L49.3306 7.66761H49.2511L46.3676 16ZM46.641 12.0128H51.9308V13.3054H46.641V12.0128ZM63.5283 5.81818V16H62.1163L56.9409 8.53267H56.8464V16H55.3102V5.81818H56.7321L61.9125 13.2955H62.007V5.81818H63.5283ZM72.6598 9.0348C72.5637 8.73319 72.4345 8.46307 72.2721 8.22443C72.113 7.98248 71.9224 7.77699 71.7003 7.60795C71.4783 7.43561 71.2247 7.30469 70.9397 7.2152C70.6579 7.12571 70.348 7.08097 70.01 7.08097C69.4366 7.08097 68.9195 7.22846 68.4588 7.52344C67.9981 7.81842 67.6336 8.25095 67.3651 8.82102C67.0999 9.38778 66.9674 10.0821 66.9674 10.9041C66.9674 11.7294 67.1016 12.4271 67.3701 12.9972C67.6385 13.5672 68.0064 13.9998 68.4738 14.2947C68.9411 14.5897 69.473 14.7372 70.0696 14.7372C70.6231 14.7372 71.1054 14.6245 71.5164 14.3991C71.9307 14.1738 72.2505 13.8556 72.4759 13.4446C72.7046 13.0303 72.8189 12.5431 72.8189 11.983L73.2167 12.0575H70.3033V10.7898H74.3054V11.9482C74.3054 12.8033 74.1231 13.5457 73.7586 14.1754C73.3973 14.8018 72.8968 15.2857 72.2571 15.6271C71.6208 15.9685 70.8916 16.1392 70.0696 16.1392C69.1482 16.1392 68.3395 15.9271 67.6435 15.5028C66.9508 15.0786 66.4105 14.477 66.0228 13.6982C65.635 12.916 65.4411 11.9879 65.4411 10.9141C65.4411 10.102 65.5538 9.37287 65.7792 8.72656C66.0045 8.08026 66.3211 7.53172 66.7287 7.08097C67.1397 6.62689 67.622 6.28054 68.1755 6.0419C68.7323 5.79995 69.3405 5.67898 70 5.67898C70.5502 5.67898 71.0623 5.76018 71.5363 5.92258C72.0135 6.08499 72.4378 6.31534 72.809 6.61364C73.1835 6.91193 73.4934 7.26657 73.7387 7.67756C73.9839 8.08523 74.1497 8.53764 74.2358 9.0348H72.6598ZM76.2555 16V5.81818H77.7918V10.6804H77.9161L82.1866 5.81818H84.1206L80.0141 10.402L84.1355 16H82.2861L78.9949 11.451L77.7918 12.8331V16H76.2555ZM86.4125 16H84.7818L88.4459 5.81818H90.2207L93.8848 16H92.2541L89.3756 7.66761H89.296L86.4125 16ZM86.6859 12.0128H91.9757V13.3054H86.6859V12.0128ZM100.826 8.4929C100.773 8.02225 100.555 7.65767 100.17 7.39915C99.7857 7.13731 99.3018 7.00639 98.7184 7.00639C98.3008 7.00639 97.9395 7.07268 97.6346 7.20526C97.3297 7.33452 97.0927 7.51349 96.9237 7.74219C96.758 7.96757 96.6751 8.22443 96.6751 8.51278C96.6751 8.75473 96.7315 8.96354 96.8441 9.1392C96.9601 9.31487 97.111 9.46236 97.2966 9.58168C97.4855 9.69768 97.6877 9.79545 97.9031 9.875C98.1185 9.95123 98.3257 10.0142 98.5245 10.0639L99.5189 10.3224C99.8437 10.402 100.177 10.5097 100.518 10.6456C100.86 10.7815 101.176 10.9605 101.468 11.1825C101.759 11.4046 101.995 11.6797 102.174 12.0078C102.356 12.3359 102.447 12.7287 102.447 13.1861C102.447 13.7628 102.298 14.2749 102 14.7223C101.705 15.1697 101.275 15.5227 100.712 15.7812C100.152 16.0398 99.4741 16.169 98.6787 16.169C97.9163 16.169 97.2568 16.0481 96.7 15.8061C96.1431 15.5642 95.7073 15.2211 95.3924 14.777C95.0776 14.3295 94.9036 13.7992 94.8704 13.1861H96.4116C96.4414 13.554 96.5608 13.8606 96.7696 14.1058C96.9817 14.3478 97.2518 14.5284 97.5799 14.6477C97.9114 14.7637 98.2743 14.8217 98.6687 14.8217C99.1029 14.8217 99.489 14.7538 99.8271 14.6179C100.168 14.4787 100.437 14.2865 100.632 14.0412C100.828 13.7926 100.926 13.5026 100.926 13.1712C100.926 12.8696 100.84 12.6226 100.667 12.4304C100.498 12.2382 100.268 12.0791 99.9762 11.9531C99.6879 11.8272 99.3614 11.7161 98.9968 11.62L97.7937 11.2919C96.9784 11.0698 96.3321 10.7434 95.8548 10.3125C95.3808 9.88163 95.1439 9.31155 95.1439 8.60227C95.1439 8.01562 95.3029 7.50355 95.6211 7.06605C95.9393 6.62855 96.3702 6.28883 96.9137 6.04688C97.4573 5.80161 98.0705 5.67898 98.7532 5.67898C99.4426 5.67898 100.051 5.79995 100.578 6.0419C101.108 6.28385 101.526 6.61695 101.831 7.04119C102.136 7.46212 102.295 7.94602 102.308 8.4929H100.826ZM105.061 16H103.43L107.094 5.81818H108.869L112.533 16H110.903L108.024 7.66761H107.944L105.061 16ZM105.334 12.0128H110.624V13.3054H105.334V12.0128Z" fill="#E21F26"/>
<path d="M48.8037 34H45.5075V23.8182H48.9081C49.9057 23.8182 50.7625 24.022 51.4784 24.4297C52.1943 24.834 52.7428 25.4157 53.124 26.1747C53.5084 26.9304 53.7007 27.8369 53.7007 28.8942C53.7007 29.9548 53.5068 30.8662 53.119 31.6286C52.7345 32.3909 52.1777 32.9775 51.4485 33.3885C50.7194 33.7962 49.8377 34 48.8037 34ZM47.0437 32.6577H48.7191C49.4947 32.6577 50.1394 32.5118 50.6531 32.2202C51.1668 31.9252 51.5513 31.4993 51.8065 30.9425C52.0617 30.3823 52.1893 29.6996 52.1893 28.8942C52.1893 28.0954 52.0617 27.4176 51.8065 26.8608C51.5546 26.304 51.1784 25.8814 50.6779 25.593C50.1775 25.3047 49.556 25.1605 48.8136 25.1605H47.0437V32.6577ZM57.1472 23.8182V34H55.611V23.8182H57.1472ZM66.2751 27.0348C66.179 26.7332 66.0497 26.4631 65.8873 26.2244C65.7282 25.9825 65.5376 25.777 65.3156 25.608C65.0935 25.4356 64.8399 25.3047 64.5549 25.2152C64.2732 25.1257 63.9633 25.081 63.6252 25.081C63.0518 25.081 62.5348 25.2285 62.0741 25.5234C61.6134 25.8184 61.2488 26.2509 60.9803 26.821C60.7152 27.3878 60.5826 28.0821 60.5826 28.9041C60.5826 29.7294 60.7168 30.4271 60.9853 30.9972C61.2538 31.5672 61.6217 31.9998 62.089 32.2947C62.5563 32.5897 63.0883 32.7372 63.6849 32.7372C64.2384 32.7372 64.7206 32.6245 65.1316 32.3991C65.5459 32.1738 65.8657 31.8556 66.0911 31.4446C66.3198 31.0303 66.4342 30.5431 66.4342 29.983L66.8319 30.0575H63.9185V28.7898H67.9207V29.9482C67.9207 30.8033 67.7384 31.5457 67.3738 32.1754C67.0125 32.8018 66.5121 33.2857 65.8724 33.6271C65.236 33.9685 64.5068 34.1392 63.6849 34.1392C62.7635 34.1392 61.9548 33.9271 61.2587 33.5028C60.566 33.0786 60.0258 32.477 59.638 31.6982C59.2502 30.916 59.0563 29.9879 59.0563 28.9141C59.0563 28.102 59.169 27.3729 59.3944 26.7266C59.6198 26.0803 59.9363 25.5317 60.344 25.081C60.7549 24.6269 61.2372 24.2805 61.7907 24.0419C62.3475 23.8 62.9557 23.679 63.6153 23.679C64.1655 23.679 64.6775 23.7602 65.1515 23.9226C65.6288 24.085 66.053 24.3153 66.4242 24.6136C66.7987 24.9119 67.1086 25.2666 67.3539 25.6776C67.5992 26.0852 67.7649 26.5376 67.8511 27.0348H66.2751ZM71.407 23.8182V34H69.8708V23.8182H71.407ZM73.1421 25.1406V23.8182H81.0221V25.1406H77.8452V34H76.314V25.1406H73.1421ZM82.4203 34H80.7896L84.4537 23.8182H86.2286L89.8926 34H88.2619L85.3834 25.6676H85.3038L82.4203 34ZM82.6938 30.0128H87.9835V31.3054H82.6938V30.0128ZM91.363 34V23.8182H92.8992V32.6776H97.5128V34H91.363Z" fill="#F27121"/>
</svg>
