<svg width="56" height="56" viewBox="0 0 56 56" fill="none" xmlns="http://www.w3.org/2000/svg">
<g clip-path="url(#clip0_133_638)">
<path d="M30.5043 54.2301H5.39261C2.41886 54.2301 0 51.8154 0 48.8471V5.38296C0 2.41469 2.41886 0 5.39261 0H32.9725C33.6159 0 34.1383 0.521364 34.1383 1.16359C34.1383 1.80582 33.6159 2.32718 32.9725 2.32718H5.39261C3.70455 2.32718 2.33148 3.69772 2.33148 5.38268V48.8471C2.33148 50.5321 3.70455 51.9026 5.39261 51.9026H30.5043C31.1479 51.9026 31.67 52.4237 31.67 53.0662C31.67 53.7087 31.1479 54.2298 30.5043 54.2298V54.2301Z" fill="#F27121"/>
<path d="M43.204 27.5442C42.5606 27.5442 42.0383 27.0229 42.0383 26.3806V11.3762C42.0383 10.734 42.5606 10.2126 43.204 10.2126C43.8474 10.2126 44.3697 10.734 44.3697 11.3762V26.3806C44.3697 27.0229 43.8477 27.5442 43.204 27.5442Z" fill="#F27121"/>
<path d="M43.204 12.5398H32.9728C32.3291 12.5398 31.8071 12.0187 31.8071 11.3762V1.16356C31.8071 0.693222 32.0909 0.269062 32.5267 0.0883378C32.9622 -0.0912462 33.464 0.00823762 33.7973 0.340611L44.0285 10.5532C44.3615 10.8856 44.462 11.3865 44.2812 11.8214C44.1007 12.2562 43.6755 12.5395 43.204 12.5395V12.5398ZM34.1385 10.2123H40.3896L34.1385 3.97277V10.2123Z" fill="#F27121"/>
<path d="M36.0062 18.8281H21.699C21.0555 18.8281 20.5332 18.3067 20.5332 17.6645C20.5332 17.0223 21.0555 16.5009 21.699 16.5009H36.0062C36.6499 16.5009 37.172 17.022 37.172 17.6645C37.172 18.307 36.6499 18.8281 36.0062 18.8281Z" fill="#F27121"/>
<path d="M14.5112 18.8281H8.27383C7.63042 18.8281 7.10809 18.3067 7.10809 17.6645C7.10809 17.0223 7.63042 16.5009 8.27383 16.5009H14.5112C15.1549 16.5009 15.6769 17.022 15.6769 17.6645C15.6769 18.307 15.1549 18.8281 14.5112 18.8281Z" fill="#F27121"/>
<path d="M36.0062 27.9199H30.7881C30.1444 27.9199 29.6224 27.3988 29.6224 26.7563C29.6224 26.1138 30.1444 25.5927 30.7881 25.5927H36.0062C36.6499 25.5927 37.172 26.1141 37.172 26.7563C37.172 27.3985 36.6499 27.9199 36.0062 27.9199Z" fill="#F27121"/>
<path d="M25.1451 27.9199H8.27383C7.63042 27.9199 7.10809 27.3988 7.10809 26.7563C7.10809 26.1138 7.63042 25.5927 8.27383 25.5927H25.1451C25.7888 25.5927 26.3108 26.1141 26.3108 26.7563C26.3108 27.3985 25.7888 27.9199 25.1451 27.9199Z" fill="#F27121"/>
<path d="M28.247 37.012H8.27383C7.63042 37.012 7.10809 36.4909 7.10809 35.8484C7.10809 35.2059 7.63042 34.6848 8.27383 34.6848H28.247C28.8907 34.6848 29.4128 35.2059 29.4128 35.8484C29.4128 36.4909 28.8907 37.012 28.247 37.012Z" fill="#F27121"/>
<path d="M26.8217 46.104H8.27383C7.63042 46.104 7.10809 45.5827 7.10809 44.9404C7.10809 44.2982 7.63042 43.7769 8.27383 43.7769H26.8217C27.4651 43.7769 27.9874 44.2979 27.9874 44.9404C27.9874 45.583 27.4651 46.104 26.8217 46.104Z" fill="#F27121"/>
<path d="M42.4061 51.0039V49.5695C41.4548 49.5535 40.4781 49.3263 39.7445 48.9843C39.4118 48.8292 39.2678 48.4418 39.3924 48.104L39.3981 48.0883C39.5426 47.6961 39.9992 47.498 40.3879 47.6722C41.0576 47.972 41.8678 48.1761 42.7219 48.1761C44.2169 48.1761 45.2276 47.3361 45.2276 46.1679C45.2276 44.9998 44.4063 44.3442 42.8484 43.7293C40.7006 42.9095 39.3741 41.9671 39.3741 40.1844C39.3741 38.4016 40.6166 37.1924 42.5534 36.8851V35.4508C42.5534 35.0999 42.8456 34.8154 43.2063 34.8154C43.5667 34.8154 43.8591 35.0999 43.8591 35.4508V36.8033C44.7287 36.8316 45.409 36.9957 45.9476 37.209C46.32 37.3563 46.5002 37.7668 46.3579 38.1328C46.2112 38.5102 45.7765 38.6992 45.3933 38.5453C44.9138 38.3529 44.2601 38.1762 43.4168 38.1762C41.7958 38.1762 41.1849 39.1188 41.1849 39.9386C41.1849 41.0042 41.9643 41.5369 43.7957 42.2747C45.9644 43.1352 47.0596 44.2011 47.0596 46.0245C47.0596 47.6434 45.9013 49.1599 43.7326 49.5082V51.0042C43.7326 51.3551 43.4405 51.6395 43.0798 51.6395H43.0589C42.6982 51.6395 42.4061 51.3551 42.4061 51.0042V51.0039Z" fill="#F27121"/>
<path d="M43.204 56C36.1485 56 30.408 50.2701 30.408 43.2276C30.408 36.185 36.1485 30.4549 43.204 30.4549C50.2595 30.4549 56.0003 36.1848 56.0003 43.2276C56.0003 50.2704 50.2598 56 43.204 56ZM43.204 32.4717C37.2625 32.4717 32.4285 37.2968 32.4285 43.2276C32.4285 49.1584 37.2625 53.9833 43.204 53.9833C49.1455 53.9833 53.9795 49.1581 53.9795 43.2276C53.9795 37.297 49.1455 32.4717 43.204 32.4717Z" fill="#F27121"/>
</g>
<defs>
<clipPath id="clip0_133_638">
<rect width="56" height="56" fill="white"/>
</clipPath>
</defs>
</svg>
