<svg width="76" height="56" viewBox="0 0 76 56" fill="none" xmlns="http://www.w3.org/2000/svg">
<g clip-path="url(#clip0_133_564)">
<path d="M31.3775 43.532H5.51782C2.47562 43.532 0 41.1074 0 38.127V5.40503C0 2.42457 2.47524 0 5.51782 0H62.7218C65.764 0 68.2396 2.42457 68.2396 5.40503V10.1466C68.2396 10.6139 67.8522 10.9935 67.3745 10.9935C66.8968 10.9935 66.5094 10.6139 66.5094 10.1466V5.40503C66.5094 3.3589 64.81 1.69383 62.7218 1.69383H5.51782C3.42958 1.69383 1.73023 3.3589 1.73023 5.40503V38.127C1.73023 40.1731 3.42958 41.8381 5.51782 41.8381H31.3779C31.8556 41.8381 32.243 42.2177 32.243 42.6851C32.243 43.1524 31.8556 43.532 31.3779 43.532H31.3775Z" fill="#F27121"/>
<path d="M25.8059 53.2336C25.6702 53.2336 25.5325 53.203 25.4056 53.1376C24.982 52.9205 24.818 52.4087 25.0403 51.9944C26.6199 49.0326 26.6184 46.1135 25.0361 43.0695C24.8199 42.6529 24.9881 42.1422 25.4132 41.9304C25.8356 41.7201 26.3603 41.8834 26.5765 42.3006C28.4058 45.8191 28.4047 49.345 26.5723 52.7793C26.419 53.0685 26.1178 53.234 25.8067 53.234L25.8059 53.2336Z" fill="#F27121"/>
<path d="M32.8096 53.2336H18.7378C18.2601 53.2336 17.8727 52.854 17.8727 52.3867C17.8727 51.9193 18.2601 51.5398 18.7378 51.5398H32.8096C33.2873 51.5398 33.6747 51.9193 33.6747 52.3867C33.6747 52.854 33.2873 53.2336 32.8096 53.2336Z" fill="#F27121"/>
<path d="M52.6508 54.5359H41.7306C38.7685 54.5359 36.3592 52.1749 36.3592 49.2732V19.2228C36.3592 16.3212 38.7689 13.9601 41.7306 13.9601H63.5705C66.5326 13.9601 68.9419 16.3212 68.9419 19.2228V23.2698C68.9419 23.7372 68.5545 24.1168 68.0768 24.1168C67.5991 24.1168 67.2117 23.7372 67.2117 23.2698V19.2228C67.2117 17.2548 65.5779 15.6539 63.5701 15.6539H41.7303C39.7225 15.6539 38.0887 17.2548 38.0887 19.2228V49.2732C38.0887 51.2413 39.7225 52.8421 41.7303 52.8421H52.6504C53.1281 52.8421 53.5155 53.2216 53.5155 53.689C53.5155 54.1563 53.1281 54.5359 52.6504 54.5359H52.6508Z" fill="#F27121"/>
<path d="M52.6508 48.5488H47.7117C47.234 48.5488 46.8466 48.1693 46.8466 47.7019C46.8466 47.2346 47.234 46.855 47.7117 46.855H52.6508C53.1285 46.855 53.5159 47.2346 53.5159 47.7019C53.5159 48.1693 53.1285 48.5488 52.6508 48.5488Z" fill="#F27121"/>
<path d="M71.7725 56H59.7623C57.7927 56 56.1894 54.4302 56.1894 52.5006V30.0897C56.1894 28.1605 57.7923 26.591 59.7623 26.591H71.7725C73.7422 26.591 75.3455 28.1601 75.3455 30.0897V52.5006C75.3455 54.4298 73.7426 56 71.7725 56ZM59.7627 28.2849C58.7458 28.2849 57.92 29.0944 57.92 30.0897V52.5006C57.92 53.4966 58.7455 54.3062 59.7627 54.3062H71.7729C72.7898 54.3062 73.6156 53.4966 73.6156 52.5006V30.0897C73.6156 29.0944 72.7901 28.2849 71.7729 28.2849H59.7627Z" fill="#F27121"/>
<path d="M67.8667 32.1556H63.6685C63.1908 32.1556 62.8034 31.776 62.8034 31.3086C62.8034 30.8413 63.1908 30.4617 63.6685 30.4617H67.8667C68.3445 30.4617 68.7319 30.8413 68.7319 31.3086C68.7319 31.776 68.3445 32.1556 67.8667 32.1556Z" fill="#F27121"/>
<path d="M68.558 51.7326H62.9772C62.4995 51.7326 62.1121 51.353 62.1121 50.8856C62.1121 50.4183 62.4995 50.0387 62.9772 50.0387H68.558C69.0357 50.0387 69.4231 50.4183 69.4231 50.8856C69.4231 51.353 69.0357 51.7326 68.558 51.7326Z" fill="#F27121"/>
</g>
<defs>
<clipPath id="clip0_133_564">
<rect width="75.3455" height="56" fill="white"/>
</clipPath>
</defs>
</svg>
