<svg width="85" height="56" viewBox="0 0 85 56" fill="none" xmlns="http://www.w3.org/2000/svg">
<g clip-path="url(#clip0_133_658)">
<path d="M0.422881 49.0436C0.697753 49.3185 1.06777 49.4771 1.45894 49.4771H24.9288C24.654 51.0312 24.4637 52.7016 24.4425 54.5199C24.4425 54.9111 24.5905 55.2917 24.8654 55.5666C25.1403 55.8414 25.5103 56 25.912 56H58.2518C59.0447 56 59.6896 55.3657 59.7108 54.5834C59.7108 54.3825 59.7636 52.3104 59.3408 49.4771H82.9587C83.7516 49.4771 84.3965 48.8428 84.4176 48.0604C84.4282 47.5635 84.7348 35.7123 77.3132 28.9145C76.7952 28.4388 76.0023 28.3965 75.4314 28.8299C75.3468 28.8934 66.7095 35.3846 58.6642 28.8299C58.1144 28.3859 57.3215 28.3965 56.7823 28.8616C56.6132 29.0096 54.245 31.1135 52.1941 35.1731C51.7183 34.9723 51.158 35.0251 50.7246 35.3529C50.3757 35.6172 41.9604 41.8758 33.9573 35.3529C33.5662 35.0357 33.0481 34.9511 32.5935 35.0991C31.5575 32.879 30.1408 30.7117 28.1533 28.9039C27.6353 28.4282 26.8424 28.3859 26.2715 28.8194C26.1869 28.8828 17.5496 35.374 9.50425 28.8194C8.9545 28.3753 8.1616 28.3859 7.62243 28.8511C7.32641 29.1259 0.179724 35.4903 0 47.997C0 48.3882 0.148008 48.7688 0.422881 49.0436ZM57.8818 31.9064C65.5254 37.2347 73.3275 33.5345 76.1186 31.8535C80.4637 36.5158 81.2989 43.5673 81.4469 46.5486H58.7382C57.9981 43.5673 56.6872 40.216 54.3931 37.3721C55.6088 34.7185 57.0043 32.8896 57.8713 31.9064H57.8818ZM33.175 38.4399C40.8186 43.7682 48.6207 40.068 51.4117 38.387C55.7568 43.0493 56.592 50.1008 56.7506 53.0821H27.4238C27.9419 45.2271 31.5469 40.3006 33.1856 38.4399H33.175ZM8.74306 31.9064C16.3866 37.2347 24.1888 33.5345 26.9798 31.8535C28.481 33.4605 29.5488 35.3529 30.3311 37.2664C28.8722 39.0636 26.8529 42.1507 25.5949 46.5486H2.98131C3.49934 38.6936 7.1044 33.7671 8.74306 31.9064Z" fill="#F27121"/>
<path d="M17.6341 27.6564C21.3238 27.6564 24.7914 26.2186 27.4027 23.5968C27.7621 23.2373 28.1004 22.8567 28.4176 22.4656C29.4325 29.0942 35.1625 34.1794 42.0661 34.1794C45.7557 34.1794 49.2233 32.7416 51.8346 30.1197C54.0125 27.9419 55.3657 25.1614 55.7569 22.159C58.2836 25.4892 62.2692 27.6459 66.7623 27.6459C70.452 27.6459 73.9196 26.2081 76.5309 23.5862C79.1422 20.9749 80.5905 17.4967 80.58 13.8071C80.58 6.18466 74.3742 -0.0211182 66.7518 -0.0211182C63.0621 -0.0211182 59.5839 1.41668 56.9726 4.03854C54.7948 6.21637 53.4416 8.99682 53.0504 11.9993C50.5237 8.66908 46.538 6.51239 42.0449 6.51239C38.3553 6.51239 34.8877 7.95019 32.2658 10.572C31.9064 10.9315 31.5681 11.3121 31.2509 11.7033C30.2254 5.0746 24.506 -0.0211182 17.6024 -0.0211182C13.9128 -0.0211182 10.4346 1.41668 7.8233 4.03854C5.21201 6.64983 3.77422 10.128 3.77422 13.8177C3.77422 21.4401 9.97999 27.6353 17.6024 27.6353L17.6341 27.6564ZM59.0659 6.12123C61.1274 4.05968 63.8656 2.9179 66.7729 2.9179C72.7884 2.9179 77.6727 7.81275 77.6832 13.8177C77.6832 16.725 76.5414 19.4631 74.4799 21.5247C72.4184 23.5862 69.6802 24.728 66.7729 24.728C60.7574 24.728 55.8626 19.8437 55.8626 13.8282C55.8626 10.9209 56.9938 8.18277 59.0553 6.12123H59.0659ZM34.3591 12.6442C36.4206 10.5826 39.1588 9.44084 42.0661 9.44084C48.0816 9.44084 52.9764 14.3357 52.9764 20.3406C52.9764 23.2479 51.8452 25.9861 49.7731 28.0476C47.7115 30.1091 44.9734 31.2509 42.0661 31.2509C36.0506 31.2509 31.1663 26.3561 31.1558 20.3512C31.1558 17.4439 32.287 14.7057 34.3591 12.6442ZM9.92713 6.12123C11.9887 4.05968 14.7268 2.9179 17.6341 2.9179C23.6496 2.9179 28.5339 7.81275 28.5445 13.8177C28.5445 16.725 27.4133 19.4631 25.3411 21.5247C23.2796 23.5862 20.5414 24.728 17.6341 24.728C11.6187 24.728 6.72381 19.8437 6.72381 13.8282C6.72381 10.9209 7.85502 8.18277 9.92713 6.12123Z" fill="#F27121"/>
</g>
<defs>
<clipPath id="clip0_133_658">
<rect width="84.407" height="56" fill="white"/>
</clipPath>
</defs>
</svg>
